<?xml version="1.0"?>
<svg xmlns="http://www.w3.org/2000/svg" version="1.2" baseProfile="tiny" width="800" height="946" viewBox="0 0 800 946" stroke-linecap="round" stroke-linejoin="round">
<g id="Taiwan">
<path d="M 365.04 85.35 363.48 87.84 361.32 85.44 365.04 85.35 Z M 359.24 44.73 361.49 45.89 360.83 47.66 364.46 48.15 365.97 46.35 368.14 46.21 368.69 48.29 364.49 51.44 362.9 50.93 358.77 51.72 357.92 50.08 359.37 48.36 359.24 44.73 Z M 375.94 31.49 378.08 33.93 375.93 35.73 373.17 34.25 375.94 31.49 Z M 477.62 1 478.02 3.48 482.96 4.67 479.49 6.39 478.83 3.96 476.41 2.47 477.62 1 Z" fill-rule="evenodd"/>
<path data-name="yeelan"  d="M 790.4 295.55 781.89 298.6 779.92 302.11 773.95 305.64 773.42 309.05 768.18 314.19 766.27 315.11 761.9 323.45 760.57 327.99 759.6 333.39 759.24 338.67 759.87 345.07 763.1 353.37 763.49 360.81 764.19 364.31 766.43 370.25 769.37 374.06 772.47 374.98 773.34 376.23 770.15 381.18 770.97 389.9 769.89 391.37 764.28 392.93 763.92 397.6 766.08 398.31 766.13 400.36 755.85 411 753.59 416.49 752.73 424.01 749.9 430.07 749.33 432.41 750 436.05 746.85 436.28 743.83 434.46 737.43 433.64 728.94 430.14 719.89 424.42 717.94 425.25 717.95 427.24 720.76 429.09 720.31 431.91 713.26 432.25 712.65 433.35 714.85 436.61 704.97 434.5 704.13 432.71 696.99 430.22 691.94 431.01 689.28 429.09 684.96 427.58 682.23 425.66 679.24 421.83 672.95 422.95 671.41 422.52 667.32 425.2 665.73 424.93 663.9 420.53 661.89 419.67 658.34 420.32 655.51 416.77 656.15 411.09 653.96 409.5 654.64 407.85 656.49 404.97 657.82 404.05 659.86 400.49 661.53 400.2 662.42 399.98 665.12 397.64 666.53 395.13 667.06 395.14 668.23 394.2 669.19 392.58 669.62 392.1 669.69 392.07 671.63 391.04 670.6 388.81 671.18 384.32 671.57 383.87 673.85 381.81 673.29 380.22 673.28 380.19 672.7 379.39 672.61 379.26 671.93 377.89 673.98 375.38 677.14 374.87 678.62 371 682.1 365.4 681.37 364.55 683.81 360.75 688.12 360.61 690.8 360.75 694.9 358.37 697.34 358.62 700.09 357.53 701.46 353.9 708.59 351.98 710.78 350.83 712.4 346.88 711.37 342.33 712.86 339.84 711.68 336.7 717.67 335.63 719.7 332.19 723.36 331.15 726.04 331.73 727.85 330.5 732.17 330.42 732.08 328.55 737.42 325.27 741.28 322.32 743.25 323.03 747.25 322.14 748.97 320.2 752.29 318.16 751.6 315.26 753.88 313.03 762.15 311.99 766.43 308.03 765.27 305.06 763.84 304.15 765.39 300.33 768.34 299.63 770.51 300.25 775.91 298.91 777.1 297.38 779.92 296.3 783.55 296 785.74 294.52 789.72 294.56 790.4 295.55 Z"/>
<path data-name="junhua" d="M 472.77 458.8 482.83 462.17 483.61 463.01 487.35 471.13 486.89 473.05 488.69 475.68 492.36 478.43 497.19 479.6 505.55 480.81 506.14 484.65 508.28 487.88 507.91 491.18 508.98 496.16 512.39 496.93 514.66 495.93 519.5 499.44 518.22 501.16 511.69 500.67 510.84 503.71 513.49 505.56 512.81 510.09 509.05 512.94 510.38 515.28 509.21 517.23 510.79 518.26 509.64 521.23 510.12 525.13 509.16 525.65 507.19 530.64 508.68 532.55 506.92 535.7 510.99 538.38 511.37 540.2 513.62 541.79 519.54 541.04 519.57 543.22 516.97 545.82 511.45 547.4 506.11 546.29 501.39 546.35 492.59 544.22 484.23 544.45 478.37 543.09 471.8 540.83 467.83 538.13 463.04 538.92 454.62 538.46 452.47 539.58 441.53 540.2 430.36 537.26 426.35 534.34 423.07 530.54 426.22 526.53 428.7 525.86 430.93 523.57 430.62 521.77 433.33 516.99 435.52 516.09 436.46 511.69 441.28 508.23 441.66 505.1 443.29 502.55 447.01 499.46 448.54 494.05 448.68 489.74 450.38 487.37 453.16 485.38 457.54 483.94 457.04 482.01 460.2 477.67 464.02 469.24 464.25 466.72 467.75 463.12 470.12 462.63 472.77 458.8 Z"/>
<path data-name="nantou" d="M 659.3 455.35 660.7 460.26 655.67 461.11 651.44 464.51 647.75 465.01 647.68 469.31 646.33 473.8 649.38 474.52 653.59 477.89 656.24 478.32 654.27 482.32 655.12 484.52 646.71 490.97 647.24 494.03 643.81 501.05 641.85 504 642.86 507.57 645.6 509.58 644.37 515.39 645.31 518.56 644.97 521.84 643.15 521.9 643.61 526.85 640.33 530.28 639.5 533.5 637.57 535.83 636.48 541.91 635.01 542.66 635.17 547.58 630.33 550.54 631.98 553.39 636.05 554.86 635.27 556.19 637.87 563.61 637.48 568.3 636.07 570.5 636.66 573.63 634.31 578.32 634.41 580.91 631.97 586.53 630.52 587.44 628.06 586.44 622.77 589.37 619.4 589.33 619.09 592.04 620.86 593.32 618.19 596.45 618.87 597.96 618.04 601.87 615.65 604.38 612.47 603.17 606.5 604.47 601.54 603.7 600.18 607.71 598.23 608.94 597.38 611.23 595.33 612.97 599.54 615.61 598.08 617.9 594.18 619.07 590.33 621.18 589.36 618.85 590.46 617.77 588.9 615.57 587.06 615.55 580.12 613.54 578.18 614.01 576.08 614.51 569.76 612.7 563.37 612.72 562.04 614.4 558.42 613.17 553.24 613.65 550.73 611.09 549.91 605.29 546.85 599.98 546.9 597.94 549.39 594.41 549.16 591.84 550.02 589.25 547.96 586.35 545.78 587.24 540.74 586.21 537.52 583.97 535.13 583.43 530.49 584.28 529.01 581.94 525.05 582.92 522.21 582.26 520.54 584.26 515.83 584.35 513.77 583.14 514.23 580.5 512.45 580.03 510.4 582.37 509.07 579.15 510.31 575.7 512.79 571.29 512.76 567.25 511.42 563.45 511.31 559.91 512.34 557.8 514.41 557.14 514.73 554.2 513.16 550.1 511.45 547.4 516.97 545.82 519.57 543.22 519.54 541.04 513.62 541.79 511.37 540.2 510.99 538.38 506.92 535.7 508.68 532.55 507.19 530.64 509.16 525.65 510.12 525.13 509.64 521.23 510.79 518.26 509.21 517.23 510.38 515.28 509.05 512.94 512.81 510.09 513.49 505.56 510.84 503.71 511.69 500.67 518.22 501.16 519.5 499.44 525.34 501.3 528.04 500.36 530.67 500.49 533.68 502.69 538.84 500.48 544.46 493.77 546.5 488.88 548.19 487.7 551.2 487.34 551.04 482.51 552.67 477.78 554.47 476.19 557.07 477.71 560.31 477.84 562.18 481.24 564.3 481.62 565.01 477.87 570.26 479.78 572.78 478.78 576.62 475.49 578.96 477.11 581.91 477.78 584.9 477.36 586.83 475.69 590.38 469.56 597.13 468.72 598.19 469.83 606.34 463.94 609.36 460.89 615.59 461.11 618.23 457.6 621.03 457.08 622.41 454.97 625.15 457.72 628.51 455.44 630.91 455.75 633.35 454.16 637.19 456.16 638.5 455.58 640.79 451.21 642.97 450.7 645.56 453.6 648.8 454.17 651.02 453.2 655.39 453.36 659.3 455.35 Z"/>
<path data-name="yunlin" d="M 511.45 547.4 513.16 550.1 514.73 554.2 514.41 557.14 512.34 557.8 511.31 559.91 511.42 563.45 512.76 567.25 512.79 571.29 510.31 575.7 509.07 579.15 510.4 582.37 512.45 580.03 514.23 580.5 513.77 583.14 515.83 584.35 520.54 584.26 522.21 582.26 525.05 582.92 529.01 581.94 530.49 584.28 529.17 585.78 531.13 589.76 530.78 591.38 527.77 593.06 522.74 591.49 518.99 592.71 517.84 591.08 513.65 592.35 512.55 587.91 508.26 588.51 505.01 590.21 500.6 589.6 498.05 590.01 493.81 588.05 489.68 587.66 485.61 584.22 481.8 579.17 477.43 579.65 472.54 580.97 469.52 581.08 465.5 582.5 461.42 580.88 458.05 582.13 456.61 584.46 453.82 584.91 451.75 587.8 446.91 588.28 446.79 590.92 442.04 594.03 437.56 594.72 437.91 596.83 434.85 598.44 433.91 601.12 432.13 600.54 430.59 597.89 427.63 599.45 428.6 604.68 427.01 605.97 423.63 606.68 419.84 605.11 414.78 605.52 411.75 603.96 407.39 603.21 408.32 600.87 406.07 597.11 406.85 592.41 405.55 582.26 402.69 581.95 400.79 579.64 402.78 577.46 405.15 572.42 405.99 568.83 407.29 567.2 407.61 564.09 409.49 561.42 411.59 556.69 412.3 553.11 409.73 547.74 414.87 542.27 417.03 540.63 420.4 536.64 419.88 534.29 421.8 533.8 423.07 530.54 426.35 534.34 430.36 537.26 441.53 540.2 452.47 539.58 454.62 538.46 463.04 538.92 467.83 538.13 471.8 540.83 478.37 543.09 484.23 544.45 492.59 544.22 501.39 546.35 506.11 546.29 511.45 547.4 Z"/>
<path data-name="keelong" d="M 756.2 263.33 756.51 265.52 753.39 268.37 749.77 266.71 746.21 269.18 746.86 274.21 750.35 277.26 747.53 280 741.21 280.88 737.02 277.67 731.98 276.89 725.09 272.29 723.1 268.08 722.43 265.09 719.41 263.65 721.7 261.33 723.87 261.46 725.6 259.97 729.71 259.2 736.32 255.03 736.38 254.96 736.45 254.84 735.94 257.05 739.39 257.23 744.62 259.11 748.21 257.6 754.03 261.08 756.94 260.61 756.2 263.33 Z"/>
<path data-name="taipei_city" d="M 707.27 250.5 710.01 252.26 708.55 256.85 711.24 257.54 712.48 261.78 714.23 263.33 712.45 268.15 716.63 270.14 719.39 273.79 718.49 275.06 717.93 279.29 716.84 281.86 717.99 283.56 723.94 286.17 718.11 288.33 715.21 287.67 712.85 288.88 712.46 290.48 713.41 296.84 717.41 298.17 712.76 300.3 708.88 299.02 705.21 299.41 703.49 296.04 700.09 294.36 699.46 291.23 696.39 287.87 694.25 287.5 690.79 289.98 688.89 284.56 689.98 283.03 692.62 282.32 693.64 280.7 693.81 277.28 692.89 274.53 690.04 271.61 685.26 270.6 683.35 269.45 685.09 264.31 689.48 260.26 692.91 255.63 696.55 256.34 696.9 254.32 701.34 252.23 703.91 248.13 705.54 247.95 707.27 250.5 Z"/>
<path data-name="new_taipei_city" d="M 736.45 254.84 736.38 254.96 736.32 255.03 729.71 259.2 725.6 259.97 723.87 261.46 721.7 261.33 719.41 263.65 722.43 265.09 723.1 268.08 725.09 272.29 731.98 276.89 737.02 277.67 741.21 280.88 747.53 280 750.35 277.26 746.86 274.21 746.21 269.18 749.77 266.71 753.39 268.37 756.51 265.52 756.2 263.33 760.06 263.36 759.64 265.85 764.27 264.87 769.14 266.08 771.75 265.68 775.88 266.8 777.45 265.83 780.96 266.46 782.09 269.23 779.54 273.1 779.73 275.56 783.17 278.7 782.59 283.36 786.41 287.55 792 286.4 797.36 287.86 799 289.7 794.15 293.97 790.4 295.55 789.72 294.56 785.74 294.52 783.55 296 779.92 296.3 777.1 297.38 775.91 298.91 770.51 300.25 768.34 299.63 765.39 300.33 763.84 304.15 765.27 305.06 766.43 308.03 762.15 311.99 753.88 313.03 751.6 315.26 752.29 318.16 748.97 320.2 747.25 322.14 743.25 323.03 741.28 322.32 737.42 325.27 732.08 328.55 732.17 330.42 727.85 330.5 726.04 331.73 723.36 331.15 719.7 332.19 717.67 335.63 711.68 336.7 712.86 339.84 711.37 342.33 712.4 346.88 710.78 350.83 708.59 351.98 701.46 353.9 700.09 357.53 697.34 358.62 694.9 358.37 690.8 360.75 688.12 360.61 686.91 355.93 681.88 353.93 678.73 348.18 676.22 341.83 681.71 337.03 679.34 335.05 678.96 331.5 677.6 330.93 674.58 326.6 671.86 324.9 668.14 325.48 666.64 326.81 662.41 325.75 661.54 321.78 659.91 319.73 659.11 314.58 654.72 313.04 655.76 311.09 653.95 309.58 655.13 306.44 656.38 300.28 655.97 296.7 659.23 295.71 664.72 296.87 667.53 295.37 667.93 292.91 670.08 293.35 671.97 292.13 670.77 288.57 673.84 288.02 670.92 285.64 669.74 282.86 670.75 281.15 668.38 278.68 666.38 278.08 661.8 278.28 660.54 274.9 655.45 272.5 650.85 271.63 649.89 270 646.6 268.83 646.75 267.2 650.38 265.64 654.48 266.02 661.49 264.3 669.14 260.9 669.54 256.64 671.77 258.58 675.25 254.66 672.19 253.46 672.31 252.04 675.23 251.68 675.27 250.06 677.78 246.56 678.85 246.31 682.38 238.79 686.35 238.12 688.32 234.99 694.3 232.35 697.79 231.81 699.44 229.48 705.02 230.55 708.69 229.1 712.75 230.64 715.04 232.77 718.24 234.36 720.56 237.27 720.5 241.36 725.13 247.11 728.62 249.45 732.87 248.11 731.44 251.59 732.87 254.09 736.45 254.84 Z M 707.27 250.5 705.54 247.95 703.91 248.13 701.34 252.23 696.9 254.32 696.55 256.34 692.91 255.63 689.48 260.26 685.09 264.31 683.35 269.45 685.26 270.6 690.04 271.61 692.89 274.53 693.81 277.28 693.64 280.7 692.62 282.32 689.98 283.03 688.89 284.56 690.79 289.98 694.25 287.5 696.39 287.87 699.46 291.23 700.09 294.36 703.49 296.04 705.21 299.41 708.88 299.02 712.76 300.3 717.41 298.17 713.41 296.84 712.46 290.48 712.85 288.88 715.21 287.67 718.11 288.33 723.94 286.17 717.99 283.56 716.84 281.86 717.93 279.29 718.49 275.06 719.39 273.79 716.63 270.14 712.45 268.15 714.23 263.33 712.48 261.78 711.24 257.54 708.55 256.85 710.01 252.26 707.27 250.5 Z" fill-rule="evenodd"/>
<path data-name="taichung" d="M 682.23 425.66 680.04 426.94 678.78 429.33 678.13 433.04 678.64 434.52 676.18 437.54 672.42 437.52 671.87 440.12 667.18 443.59 668.16 448.71 664.35 449.33 659.3 455.35 655.39 453.36 651.02 453.2 648.8 454.17 645.56 453.6 642.97 450.7 640.79 451.21 638.5 455.58 637.19 456.16 633.35 454.16 630.91 455.75 628.51 455.44 625.15 457.72 622.41 454.97 621.03 457.08 618.23 457.6 615.59 461.11 609.36 460.89 606.34 463.94 598.19 469.83 597.13 468.72 590.38 469.56 586.83 475.69 584.9 477.36 581.91 477.78 578.96 477.11 576.62 475.49 572.78 478.78 570.26 479.78 565.01 477.87 564.3 481.62 562.18 481.24 560.31 477.84 557.07 477.71 554.47 476.19 552.67 477.78 551.04 482.51 551.2 487.34 548.19 487.7 546.5 488.88 544.46 493.77 538.84 500.48 533.68 502.69 530.67 500.49 528.04 500.36 525.34 501.3 519.5 499.44 514.66 495.93 512.39 496.93 508.98 496.16 507.91 491.18 508.28 487.88 506.14 484.65 505.55 480.81 497.19 479.6 492.36 478.43 488.69 475.68 486.89 473.05 487.35 471.13 483.61 463.01 482.83 462.17 472.77 458.8 475.35 457.26 476.93 455.19 479.91 448.68 481.53 446.86 484.19 440.9 486.91 435.95 488.71 434.95 494.37 428.79 494.83 426.74 500.82 418.38 502.71 416.58 507.55 409.75 511.3 412.38 513.21 416.22 516.34 417.74 522.3 424.9 525.53 427.09 530.39 428.37 536.3 433.24 541.63 435.41 546.2 435.91 548.73 437.71 552.1 441.27 557.08 441.56 560.8 440.34 567.03 440.9 570.8 438.51 569.66 431.75 573.58 430.24 578.03 431 581.3 432.22 583.33 431.71 585.23 433.01 588.11 432.54 590.91 436.89 594.55 439.86 598.08 439.48 598.75 437.1 602.57 434.57 605.34 435.56 612.8 431.62 616.78 426.72 622.47 426.49 623.88 423.73 627.15 422.09 628.61 418.95 631.44 419.13 632.03 421.99 635.8 421.66 636.5 418.79 638.37 417.02 638.44 414 641.33 412.96 641.61 410.22 641.79 412.05 645.38 412.07 646.71 411.85 648.84 411.66 648.96 411.5 651.45 411.36 653.96 409.5 656.15 411.09 655.51 416.77 658.34 420.32 661.89 419.67 663.9 420.53 665.73 424.93 667.32 425.2 671.41 422.52 672.95 422.95 679.24 421.83 682.23 425.66 Z"/>
<path data-name="tainan" d="M 514.2 665.55 514.79 667 512.07 670.01 510.65 672.79 510.56 675.95 506.45 678.47 505.44 680.87 503.19 682.46 500.52 686.85 500.46 688.74 496.45 695.04 493.38 698.31 488.27 701.03 482.69 706.76 478.26 709.51 477.34 712.05 473.67 711.96 472.05 717.29 470.38 717.11 467.8 722.06 466.84 725.32 464.34 730.39 462.92 730.93 460.66 729.14 456.14 730 455.06 732.15 452.34 733.53 451.13 735.42 446.66 736.09 445.51 734.15 436.58 732.84 434.41 734.83 431.52 733.46 430.67 735.09 427.8 733.09 423.01 731.81 417.11 729.37 413.47 731.37 413.56 726.89 412.89 723.37 410.09 718.07 405.05 712.91 399.89 708.82 395.03 705.92 389.72 703.48 388.89 703.72 384.9 698.47 382.57 696.97 384.12 691.21 385.94 687.71 387.66 686.29 390.06 676.82 393.01 670.61 393.92 666.02 393.66 662.81 395.5 660.27 396.34 656.95 396.96 649.86 400.01 647.48 400.06 642.97 401.54 641.22 407.95 645.51 407.96 646.63 411.67 647.89 414.3 651.41 417.03 649.61 419.68 651.37 423.17 650.51 426.8 643.97 430.39 643.23 434.84 639.53 436.91 639.11 436.4 636.67 438.34 633.81 442.13 633.8 442.14 631.67 446.81 631.62 450.24 628.35 456.88 627.91 462.85 626.01 465.79 627.28 468.94 625.81 476.45 629.19 477.58 631.24 480 629.56 481.74 631.18 478.83 632.79 478.33 634.6 482.93 635.17 484.52 637.08 482.67 638.93 489.07 642.14 490.33 643.81 486.67 647.17 487.38 651.31 486.59 655.15 488.22 660.62 485.92 662.45 487.55 664.2 490.64 664.85 493.46 667.01 495.65 666.3 498.43 667.5 502.3 664.45 505 665.93 508.89 664.52 514.2 665.55 Z"/>
<!-- <path data-name="taipei_city" d="M 646.75 267.2 646.6 268.83 649.89 270 650.85 271.63 655.45 272.5 660.54 274.9 661.8 278.28 666.38 278.08 668.38 278.68 670.75 281.15 669.74 282.86 670.92 285.64 673.84 288.02 670.77 288.57 671.97 292.13 670.08 293.35 667.93 292.91 667.53 295.37 664.72 296.87 659.23 295.71 655.97 296.7 656.38 300.28 655.13 306.44 653.95 309.58 655.76 311.09 654.72 313.04 659.11 314.58 659.91 319.73 661.54 321.78 662.41 325.75 666.64 326.81 668.14 325.48 671.86 324.9 674.58 326.6 677.6 330.93 678.96 331.5 679.34 335.05 681.71 337.03 676.22 341.83 678.73 348.18 681.88 353.93 686.91 355.93 688.12 360.61 683.81 360.75 681.37 364.55 682.1 365.4 678.62 371 677.14 374.87 673.98 375.38 671.93 377.89 671.17 378.19 669.46 379 665.56 377.46 663.99 375.86 662.63 372.49 663.56 371.31 663.6 371.16 664.01 369.86 663.05 369.03 662.52 369.09 661.27 366.99 661.27 362.07 658.63 361.34 657.83 358.62 654.07 355.53 650.85 356.55 650.85 354.01 650.91 353.46 650.94 353.34 651.85 350.92 649.85 348.11 650.57 346.14 651.19 343.09 647.63 340.66 644.22 339.15 644.06 338.62 642.01 336.34 641.55 335.49 639.19 333.33 636.16 333.25 633.68 333.71 631.24 332.06 630.95 332.5 629.97 332.09 628.48 330.33 624.12 327.54 623.49 326.95 623.39 326.91 620.84 326.21 619.74 323.6 620.61 321.88 620.85 321.26 620.11 318.54 620.07 318.51 620.02 318.46 620.34 317.81 620.12 317.53 618.39 316.97 616.54 316.76 615.65 317.59 615.02 317.28 614.91 317.29 611.76 316.85 611.17 316.71 610.74 316.46 610.35 315.2 610.31 314.17 606.05 314.09 605.29 313.69 605.29 313.67 604.74 313.31 599.33 311.89 599.83 309.1 598.79 305.4 596.16 303.76 595.92 303.79 595.65 303.92 595.26 303.39 595 303.3 592.93 303.9 591.82 304.32 590.69 304.25 590.04 304.07 586.64 304.49 585.13 305.56 584.6 304.93 584.27 302.87 586.79 300.7 589.44 296.54 589.32 294.34 593.14 287.66 598.05 282.83 605.35 280.11 606.06 278.73 613.43 275.83 620.19 274.23 625.9 271.82 631.75 268.85 637.54 267.65 641.78 265.98 646.75 267.2 Z"/> -->
<path data-name="taipei_city" d="M 603.5 390.04 601.22 392.35 602.31 396.81 602.24 397.31 605.78 397.4 607.69 397.95 612.67 395.37 618.54 395.71 622.88 396.44 626.42 396.06 632.15 394.08 633.86 395.61 633.64 397.89 633.96 398.22 636.24 399.83 636.5 399.82 638.56 403.3 641.43 404.92 641.61 409.66 641.61 410.22 641.33 412.96 638.44 414 638.37 417.02 636.5 418.79 635.8 421.66 632.03 421.99 631.44 419.13 628.61 418.95 627.15 422.09 623.88 423.73 622.47 426.49 616.78 426.72 612.8 431.62 605.34 435.56 602.57 434.57 598.75 437.1 598.08 439.48 594.55 439.86 590.91 436.89 588.11 432.54 585.23 433.01 583.33 431.71 581.3 432.22 578.03 431 573.58 430.24 569.66 431.75 570.8 438.51 567.03 440.9 560.8 440.34 557.08 441.56 552.1 441.27 548.73 437.71 546.2 435.91 541.63 435.41 536.3 433.24 530.39 428.37 525.53 427.09 522.3 424.9 516.34 417.74 513.21 416.22 511.3 412.38 507.55 409.75 509.55 408.21 515.26 401.96 519.29 394.13 520.77 392.69 522.6 386.91 524.24 384.24 526.05 378.04 527.32 375.94 532.03 371.76 535.77 369.52 536.13 367.41 540.08 363.34 542.64 362.05 549.89 360.86 556.85 354.58 557.94 350.55 560.72 347.04 564.43 348.17 564.52 348.21 564.54 348.22 567.31 346.55 568.8 348.86 568.99 351.47 570.27 351.55 572.53 351.91 574.9 353.56 577.26 353.81 578.95 353.14 581.44 354.59 581.63 355.44 580.64 358.37 582.31 360.65 583.52 361.38 584.11 362.33 584.8 362.89 587.23 364.61 588.84 364.39 589.41 364.67 589.38 364.83 589.36 364.92 589.05 365.3 589 366.17 589.23 366.89 589.29 366.91 590.31 367.55 596.11 370.43 597.46 372.15 597.94 372.43 600.39 371.82 601.13 372.55 602.89 373.56 602.92 373.61 603.13 374.37 602.97 375.15 604.38 376.71 604.51 378.38 603.32 379.92 602.49 381.76 602.4 382.02 601.48 384.08 600.45 384.98 599.49 384.43 599.89 385.28 602.55 386.77 603.5 390.04 Z"/>
<path data-name="taipei_city" d="M 470.88 603.76 474.04 607.43 476.33 606.15 478.36 606.46 479.34 609.29 481.94 609.55 483.85 612.88 480.84 617.52 477.07 615.6 475.31 615.67 471.99 619.19 469.19 620.31 467.21 617.57 467.03 615.79 464.06 615.95 460.71 613.68 459.49 611.3 461.67 606.8 463.39 607.8 467.72 604.76 470.88 603.76 Z"/>
<path data-name="taipei_city" d="M 530.49 584.28 535.13 583.43 537.52 583.97 540.74 586.21 545.78 587.24 547.96 586.35 550.02 589.25 549.16 591.84 549.39 594.41 546.9 597.94 546.85 599.98 549.91 605.29 550.73 611.09 553.24 613.65 558.42 613.17 562.04 614.4 563.37 612.72 569.76 612.7 576.08 614.51 578.18 614.01 572.03 616.68 568.75 616.33 565.4 617.92 563.36 621.22 558.57 623.6 555.38 624.53 551.04 633.9 546.02 635.53 542.61 638.56 541.5 640.79 536.21 640.36 536.29 642.2 534.06 645.06 530.79 646.75 530.44 648.49 526.55 647.84 524.92 649.25 524.74 651.89 522.63 652.92 515.03 650.67 512.16 650.49 512.03 654.72 511.06 656.23 513.15 660.35 514.2 665.55 508.89 664.52 505 665.93 502.3 664.45 498.43 667.5 495.65 666.3 493.46 667.01 490.64 664.85 487.55 664.2 485.92 662.45 488.22 660.62 486.59 655.15 487.38 651.31 486.67 647.17 490.33 643.81 489.07 642.14 482.67 638.93 484.52 637.08 482.93 635.17 478.33 634.6 478.83 632.79 481.74 631.18 480 629.56 477.58 631.24 476.45 629.19 468.94 625.81 465.79 627.28 462.85 626.01 456.88 627.91 450.24 628.35 446.81 631.62 442.14 631.67 442.13 633.8 438.34 633.81 436.4 636.67 436.91 639.11 434.84 639.53 430.39 643.23 426.8 643.97 423.17 650.51 419.68 651.37 417.03 649.61 414.3 651.41 411.67 647.89 407.96 646.63 407.95 645.51 401.54 641.22 403.64 636.29 404.4 631.83 409.9 631.62 410.36 627.34 408.14 627.34 408.16 623.83 407.32 622.61 408.19 617.21 407.24 613.47 409.48 610.94 409.91 608.63 404.8 610.08 401.83 608.54 401.72 604.42 403.47 603.34 407.39 603.21 411.75 603.96 414.78 605.52 419.84 605.11 423.63 606.68 427.01 605.97 428.6 604.68 427.63 599.45 430.59 597.89 432.13 600.54 433.91 601.12 434.85 598.44 437.91 596.83 437.56 594.72 442.04 594.03 446.79 590.92 446.91 588.28 451.75 587.8 453.82 584.91 456.61 584.46 458.05 582.13 461.42 580.88 465.5 582.5 469.52 581.08 472.54 580.97 477.43 579.65 481.8 579.17 485.61 584.22 489.68 587.66 493.81 588.05 498.05 590.01 500.6 589.6 505.01 590.21 508.26 588.51 512.55 587.91 513.65 592.35 517.84 591.08 518.99 592.71 522.74 591.49 527.77 593.06 530.78 591.38 531.13 589.76 529.17 585.78 530.49 584.28 Z M 470.88 603.76 467.72 604.76 463.39 607.8 461.67 606.8 459.49 611.3 460.71 613.68 464.06 615.95 467.03 615.79 467.21 617.57 469.19 620.31 471.99 619.19 475.31 615.67 477.07 615.6 480.84 617.52 483.85 612.88 481.94 609.55 479.34 609.29 478.36 606.46 476.33 606.15 474.04 607.43 470.88 603.76 Z" fill-rule="evenodd"/>
<path data-name="taipei_city" d="M 8.22 406.37 12.49 408.55 11.89 412.31 8.44 413.68 7.67 415.22 4.73 415.54 3.4 417.17 1 415.11 1.47 412.32 4.36 407.28 8.22 406.37 Z M 42.4 390.42 46.19 391.43 47.52 394.14 50.45 396.21 53.05 400.5 53.94 405.36 56.05 407.02 55.23 409.55 51.81 414.48 47.56 416.53 45.8 413.2 42.23 412.22 40.57 410.87 37.03 410.83 30.32 413.38 27.65 416.38 26.18 420.1 23.95 421.18 18.39 419.16 14.38 415.49 17.07 414.26 19.44 410.6 19.44 408.51 18 405.11 16.08 402.48 17.45 399.31 20.55 398.08 22.8 398.63 25.57 401.6 29.59 403.15 32.26 403.15 37.01 398.54 36.66 395.48 42.4 390.42 Z" fill-rule="evenodd"/>
<path data-name="taipei_city" d="M 590.33 621.18 593.28 623.83 592.59 628.01 587.36 630.37 587.14 632.34 584.62 634.8 584.41 637.31 587.13 637.78 589.31 640.03 591.34 639.07 592.33 641.28 597.26 644.22 596.89 647.75 593.83 648.9 593.08 650.28 589.39 651.19 584.19 653.81 580.87 653.75 578.32 656.96 574.05 661.25 571.8 661.32 569.33 662.82 568.55 664.73 568.54 668.56 567.43 671.4 568.7 673.5 565.75 675.71 565.03 678.98 561.16 681.03 563.53 684.1 562.93 687.54 563.8 691.65 562.41 695.26 559.62 700.18 562.14 703.49 561.76 705.5 558.38 706 557.8 711.1 551.82 716.99 551.38 719.1 549.44 721.01 550.25 722.79 549.65 726.47 552.04 731.25 551.04 732.74 553.87 737.78 557.61 738.38 558.71 739.68 558.01 741.95 559.65 742.68 558.62 745.81 556.23 742.75 554.96 743.94 551.99 740.93 549.87 741.04 545.26 744.13 543.56 745.97 540.56 747.46 537.46 744.5 537.07 742.92 532.98 739.4 529.26 737.86 524.95 737.9 522 741.22 519.1 742.82 515.77 742.32 515.17 738.1 512.43 736.95 507.29 738.97 504.18 739.47 497.65 744.73 493.31 748.81 486.85 747.95 484.01 748.87 476.91 746.84 475.34 748.42 474.34 754.81 472.96 757.92 472.18 762.97 472.6 772.02 470.87 778.37 469.84 779.16 468.58 783.27 468.4 790.55 467.96 793.25 470.5 797.2 470.76 799.86 469.85 804.88 467.45 808.59 465.68 814.11 466.28 818.38 466.01 824.57 461.26 823.49 455.24 819.84 450.55 815.98 444.42 812.14 441.4 808.47 440.42 805.84 432.2 796.55 432.11 791.88 429.29 786.28 429.55 783.92 432.35 781.13 431.88 776.28 430.62 772.27 421.38 753.27 418.34 753.77 416.78 751.65 420.04 750.63 417.18 742.73 416.7 739.46 413.47 731.37 417.11 729.37 423.01 731.81 427.8 733.09 430.67 735.09 431.52 733.46 434.41 734.83 436.58 732.84 445.51 734.15 446.66 736.09 451.13 735.42 452.34 733.53 455.06 732.15 456.14 730 460.66 729.14 462.92 730.93 464.34 730.39 466.84 725.32 467.8 722.06 470.38 717.11 472.05 717.29 473.67 711.96 477.34 712.05 478.26 709.51 482.69 706.76 488.27 701.03 493.38 698.31 496.45 695.04 500.46 688.74 500.52 686.85 503.19 682.46 505.44 680.87 506.45 678.47 510.56 675.95 510.65 672.79 512.07 670.01 514.79 667 514.2 665.55 513.15 660.35 511.06 656.23 512.03 654.72 512.16 650.49 515.03 650.67 522.63 652.92 524.74 651.89 524.92 649.25 526.55 647.84 530.44 648.49 530.79 646.75 534.06 645.06 536.29 642.2 536.21 640.36 541.5 640.79 542.61 638.56 546.02 635.53 551.04 633.9 555.38 624.53 558.57 623.6 563.36 621.22 565.4 617.92 568.75 616.33 572.03 616.68 578.18 614.01 580.12 613.54 587.06 615.55 588.9 615.57 590.46 617.77 589.36 618.85 590.33 621.18 Z"/>
<path data-name="taipei_city" d="M 691.51 621.3 688.98 626.37 688.55 629.2 687.04 631.45 686.48 638.64 684.34 647.03 681.18 647.8 678.21 652.17 677.06 656.83 675.67 658.59 674.43 663.36 675.58 665.17 673.15 667.96 670.9 669.04 670.55 671.58 672.89 678.65 671.25 684.36 673.64 686.71 672.77 688.41 670.27 688.93 667.7 692.7 664.17 692.56 661.84 696.03 658.4 705.61 657.9 708.73 656.29 709.59 654.86 712.42 655.25 714.08 653.72 716.74 649.25 722.35 646.4 724.32 645.81 727.19 643.66 731.5 642.62 732.14 639.12 737.77 637.61 738.12 636.81 740.59 631.11 741.6 627.42 744.42 626.57 748.71 628.68 751.65 629.42 755.7 626.66 756.84 625.29 758.47 624.37 763.27 620.11 765.96 614.08 771.84 608.4 774.83 604.24 776.29 598.77 780.94 595.4 782.15 591.81 786.59 589.77 792.85 589.05 799.27 584.09 803.38 582.31 806.61 578.57 816.99 575.41 828.12 570.73 839.37 569.21 842.2 567.94 847.62 565.01 852.78 564.37 858.39 564.37 864.81 565.3 871.34 559.07 874.84 557.38 872.52 553.33 871.92 548.28 867.81 544.98 869.08 544.66 865.03 542.64 861.33 540.35 860.5 544.36 856.22 543.45 852.58 541.89 850.49 538.29 850.1 537.29 847.67 535.03 847.33 533.99 845.05 536.22 838 540.9 837.04 542.86 835.32 539.78 829.71 540.08 828.73 536.22 826.72 534.85 826.74 536.09 821.81 537.43 819.85 537.19 817.76 535.33 815.73 534.52 810.83 532.3 807.17 532.73 803.54 534.08 803.04 533.62 799.41 535.53 796.62 535.12 794.41 536.9 790.63 542.17 783.7 542.14 781.79 544.55 778.2 549.01 777.83 552.78 776.53 555.28 772.34 562.61 772.32 564.97 768 564.72 761.86 566.89 759.96 566.77 754.91 564.23 752.43 559.48 751.33 558.62 745.81 559.65 742.68 558.01 741.95 558.71 739.68 557.61 738.38 553.87 737.78 551.04 732.74 552.04 731.25 549.65 726.47 550.25 722.79 549.44 721.01 551.38 719.1 551.82 716.99 557.8 711.1 558.38 706 561.76 705.5 562.14 703.49 559.62 700.18 562.41 695.26 563.8 691.65 562.93 687.54 563.53 684.1 561.16 681.03 565.03 678.98 565.75 675.71 568.7 673.5 567.43 671.4 568.54 668.56 568.55 664.73 569.33 662.82 571.8 661.32 574.05 661.25 578.32 656.96 580.87 653.75 584.19 653.81 589.39 651.19 593.08 650.28 595.31 649.53 598.97 651.71 600.18 654 600.26 656.86 601.86 660.45 604.72 663.77 606.57 663.58 610.03 665.76 614.35 665.81 616.55 670.39 619.67 670.89 620.98 669.46 624.08 668.57 627 669.93 628.84 673.14 629.03 675.95 631.37 679.15 631.74 682.23 635.74 683.51 637.3 685.71 639.6 685.14 643.33 688.74 642.74 690.9 645.75 691.52 646.97 690.37 650.97 689.4 653.61 689.55 654.87 688.12 654.53 683.81 655.38 681.45 653.93 678.21 655.26 675.26 657.6 675.35 660.11 668.77 660.05 667.1 662.09 665.86 661.32 664.13 663.2 660.84 662.77 659.6 666.64 656.06 666.3 650.56 670.81 645.11 673.34 640 676.09 637.04 672.58 635.89 671.29 631.74 673.5 628.85 675.41 624.55 680.98 619.47 686.72 620.08 688.1 622.09 691.51 621.3 Z"/>
<path data-name="taipei_city" d="M 750 436.05 749.05 438.7 744.55 443.5 743.7 447.41 740.37 450.69 737.99 451.31 735.71 454.92 728.56 459.09 726.7 461.54 725.68 466.22 726.89 469.68 726.79 474.09 724.96 476.82 719.34 480.78 717.4 483.54 716.84 489.46 719.8 496.02 722.56 498.31 723.46 500.51 719.33 508.81 716.71 508.03 714.83 512.33 715.87 516.42 714.47 521.16 714.57 523.55 713 532.47 708.44 542.17 707.23 548.18 707.58 553.6 702.7 563.03 703.56 565.86 702.05 570.72 701.54 574.77 699.88 576.95 698.9 580.98 698.64 587.37 696.96 593.48 694.72 596.76 693.08 603.92 693.81 608.66 695.27 610.29 692.3 616.82 691.51 621.3 688.1 622.09 686.72 620.08 680.98 619.47 675.41 624.55 673.5 628.85 671.29 631.74 672.58 635.89 676.09 637.04 673.34 640 670.81 645.11 666.3 650.56 666.64 656.06 662.77 659.6 663.2 660.84 661.32 664.13 662.09 665.86 660.05 667.1 660.11 668.77 657.6 675.35 655.26 675.26 653.93 678.21 655.38 681.45 654.53 683.81 654.87 688.12 653.61 689.55 650.97 689.4 646.97 690.37 645.75 691.52 642.74 690.9 643.33 688.74 639.6 685.14 637.3 685.71 635.74 683.51 631.74 682.23 631.37 679.15 629.03 675.95 628.84 673.14 627 669.93 624.08 668.57 620.98 669.46 619.67 670.89 616.55 670.39 614.35 665.81 610.03 665.76 606.57 663.58 604.72 663.77 601.86 660.45 600.26 656.86 600.18 654 598.97 651.71 595.31 649.53 593.08 650.28 593.83 648.9 596.89 647.75 597.26 644.22 592.33 641.28 591.34 639.07 589.31 640.03 587.13 637.78 584.41 637.31 584.62 634.8 587.14 632.34 587.36 630.37 592.59 628.01 593.28 623.83 590.33 621.18 594.18 619.07 598.08 617.9 599.54 615.61 595.33 612.97 597.38 611.23 598.23 608.94 600.18 607.71 601.54 603.7 606.5 604.47 612.47 603.17 615.65 604.38 618.04 601.87 618.87 597.96 618.19 596.45 620.86 593.32 619.09 592.04 619.4 589.33 622.77 589.37 628.06 586.44 630.52 587.44 631.97 586.53 634.41 580.91 634.31 578.32 636.66 573.63 636.07 570.5 637.48 568.3 637.87 563.61 635.27 556.19 636.05 554.86 631.98 553.39 630.33 550.54 635.17 547.58 635.01 542.66 636.48 541.91 637.57 535.83 639.5 533.5 640.33 530.28 643.61 526.85 643.15 521.9 644.97 521.84 645.31 518.56 644.37 515.39 645.6 509.58 642.86 507.57 641.85 504 643.81 501.05 647.24 494.03 646.71 490.97 655.12 484.52 654.27 482.32 656.24 478.32 653.59 477.89 649.38 474.52 646.33 473.8 647.68 469.31 647.75 465.01 651.44 464.51 655.67 461.11 660.7 460.26 659.3 455.35 664.35 449.33 668.16 448.71 667.18 443.59 671.87 440.12 672.42 437.52 676.18 437.54 678.64 434.52 678.13 433.04 678.78 429.33 680.04 426.94 682.23 425.66 684.96 427.58 689.28 429.09 691.94 431.01 696.99 430.22 704.13 432.71 704.97 434.5 714.85 436.61 712.65 433.35 713.26 432.25 720.31 431.91 720.76 429.09 717.95 427.24 717.94 425.25 719.89 424.42 728.94 430.14 737.43 433.64 743.83 434.46 746.85 436.28 750 436.05 Z"/>
<path data-name="taipei_city" d="M 258.91 666.21 259.32 669.23 256.57 672.08 253 668.4 253.94 667 258.91 666.21 Z M 270.17 629.21 273.17 630.66 273.04 638.33 269.51 638.49 270.34 635.93 270.17 629.21 Z M 289.22 570.44 291.6 571.04 295.13 575.47 293.32 576.14 292.37 578.91 295.31 586.13 297.82 586.47 299.76 588.47 303.07 585.75 309.48 589.65 309.49 592.24 312.29 595.88 308.97 596.78 308.53 595.02 302.34 594.85 299.97 597.64 298.72 597.55 295.26 599.8 293.47 602.3 294.22 605.66 290.33 604.91 286.6 605.77 287.08 603.41 292.6 599.17 292.52 597.09 290.17 596.78 286.85 597.86 288.22 594.25 285.42 592.15 284.97 589.53 288.87 590.07 289.48 592.09 292.56 591.48 293.92 589.66 293.15 586.42 293.68 582.32 290.57 580.34 291.22 577.81 287.85 573.39 282.86 574.54 280.4 577.48 279.94 579.38 276.05 579.97 275.76 584.57 276.35 586.18 274.02 590.86 274.66 594.11 271.03 593.25 267.19 594.11 267.99 591.72 270.12 592.76 272.45 589.5 269.96 586.5 271.96 586.14 273.31 583.75 271.34 582.32 273.92 576.52 278.03 578.33 279.97 578.04 282.85 574.43 283.1 572.13 289.22 570.44 Z M 295.13 553.73 297.52 556.34 291.98 556.7 295.13 553.73 Z" fill-rule="evenodd"/>
<path data-name="taipei_city" d="M 573.53 352.46 570.27 351.55 568.99 351.47 568.8 348.86 567.31 346.55 564.54 348.22 564.52 348.21 564.43 348.17 560.72 347.04 564.65 342.2 564.42 335.76 566.67 329 571.39 322.53 574.59 323.55 577.71 326.84 587.2 329.42 590.94 332.52 592.37 338.28 593.94 342.13 591.51 343.21 589.97 340.18 586.27 338.28 584.66 340.7 580.26 343.23 577.42 345.97 575.79 345.58 574.1 349.32 573.53 352.46 Z"/>
<path data-name="taipei_city" d="M 596.16 303.76 598.79 305.4 599.83 309.1 599.33 311.89 604.74 313.31 605.29 313.67 605.29 313.69 606.05 314.09 610.31 314.17 610.35 315.2 610.74 316.46 611.17 316.71 611.76 316.85 614.91 317.29 615.02 317.28 615.65 317.59 616.54 316.76 618.39 316.97 620.12 317.53 620.34 317.81 620.02 318.46 620.07 318.51 620.11 318.54 620.85 321.26 620.61 321.88 619.74 323.6 620.84 326.21 623.39 326.91 623.49 326.95 624.12 327.54 628.48 330.33 629.97 332.09 630.95 332.5 631.24 332.06 633.68 333.71 636.16 333.25 639.19 333.33 641.55 335.49 642.01 336.34 644.06 338.62 644.22 339.15 647.63 340.66 651.19 343.09 650.57 346.14 649.85 348.11 651.85 350.92 650.94 353.34 650.91 353.46 650.85 354.01 650.85 356.55 654.07 355.53 657.83 358.62 658.63 361.34 661.27 362.07 661.27 366.99 662.52 369.09 663.05 369.03 664.01 369.86 663.6 371.16 663.56 371.31 662.63 372.49 663.99 375.86 665.56 377.46 669.46 379 671.17 378.19 672.61 379.26 672.7 379.39 673.28 380.19 673.29 380.22 673.85 381.81 671.57 383.87 671.18 384.32 670.6 388.81 671.63 391.04 669.69 392.07 669.62 392.1 669.19 392.58 668.23 394.2 667.06 395.14 666.53 395.13 665.12 397.64 662.42 399.98 661.53 400.2 659.86 400.49 657.82 404.05 656.49 404.97 654.64 407.85 653.96 409.5 651.45 411.36 648.96 411.5 648.84 411.66 646.71 411.85 645.38 412.07 641.79 412.05 641.61 409.66 641.43 404.92 638.56 403.3 636.5 399.82 636.24 399.83 633.96 398.22 633.64 397.89 633.86 395.61 632.15 394.08 626.42 396.06 622.88 396.44 618.54 395.71 612.67 395.37 607.69 397.95 605.78 397.4 602.24 397.31 602.31 396.81 601.22 392.35 603.5 390.04 602.55 386.77 599.89 385.28 599.49 384.43 600.45 384.98 601.48 384.08 602.4 382.02 602.49 381.76 603.32 379.92 604.51 378.38 604.38 376.71 602.97 375.15 603.13 374.37 602.92 373.61 602.89 373.56 601.13 372.55 600.39 371.82 597.94 372.43 597.46 372.15 596.11 370.43 590.31 367.55 589.29 366.91 589.23 366.89 589 366.17 589.05 365.3 589.36 364.92 589.38 364.83 589.41 364.67 588.84 364.39 587.23 364.61 584.8 362.89 584.11 362.33 583.52 361.38 582.31 360.65 580.64 358.37 581.63 355.44 581.44 354.59 578.95 353.14 577.26 353.81 573.53 352.46 574.1 349.32 575.79 345.58 577.42 345.97 580.26 343.23 584.66 340.7 586.27 338.28 589.97 340.18 591.51 343.21 593.94 342.13 592.37 338.28 590.94 332.52 587.2 329.42 577.71 326.84 574.59 323.55 571.39 322.53 574.34 319.93 577.15 314 578.47 312.42 580.74 307.04 583.34 304.62 584.6 304.93 585.13 305.56 586.64 304.49 590.04 304.07 590.69 304.25 591.82 304.32 592.93 303.9 595 303.3 595.26 303.39 595.65 303.92 595.92 303.79 596.16 303.76 Z"/>
<path data-name="taipei_city" d="M 558.62 745.81 559.48 751.33 564.23 752.43 566.77 754.91 566.89 759.96 564.72 761.86 564.97 768 562.61 772.32 555.28 772.34 552.78 776.53 549.01 777.83 544.55 778.2 542.14 781.79 542.17 783.7 536.9 790.63 535.12 794.41 535.53 796.62 533.62 799.41 534.08 803.04 532.73 803.54 532.3 807.17 534.52 810.83 535.33 815.73 537.19 817.76 537.43 819.85 536.09 821.81 534.85 826.74 536.22 826.72 540.08 828.73 539.78 829.71 542.86 835.32 540.9 837.04 536.22 838 533.99 845.05 535.03 847.33 537.29 847.67 538.29 850.1 541.89 850.49 543.45 852.58 544.36 856.22 540.35 860.5 542.64 861.33 544.66 865.03 544.98 869.08 548.28 867.81 553.33 871.92 557.38 872.52 559.07 874.84 565.3 871.34 565.85 874.84 564.86 877.65 565.32 880.38 564.12 882.1 564.86 886.87 564.51 891.57 565.36 893.58 563.52 895.15 564.49 899.98 566.51 901.04 564.83 904.55 564.74 912.73 566.34 915.96 563.81 917.77 563.36 919.73 561.5 920.94 560.98 923.44 554.73 926.09 553.94 933.72 555.33 937.12 558.21 940.54 559.16 943.66 555.8 945 554.74 941.35 552.88 940.86 549.71 937 547.78 937.19 544.33 935.36 541.46 935.07 537.61 931.79 534.19 933.83 533.85 937.04 532.32 940.09 530.04 940.38 526.22 937.06 526.85 927.27 525.17 924.55 522.7 922.65 520.89 918.16 521.29 916.3 524.94 911.4 525.2 908.31 523.85 905.78 527.54 903.57 525.9 897.36 523.49 893.64 523.88 891.62 522.11 885.02 520.59 881.45 520.81 878.95 518.14 875.44 518.1 874.12 515.14 872.09 513.32 869.38 513.92 866.75 511.94 861.95 511.95 859.73 510.57 857.38 504.03 851.1 502.73 848.34 499.92 845.47 492.35 840.62 483.71 836.48 473.19 830.75 466.01 824.57 466.28 818.38 465.68 814.11 467.45 808.59 469.85 804.88 470.76 799.86 470.5 797.2 467.96 793.25 468.4 790.55 468.58 783.27 469.84 779.16 470.87 778.37 472.6 772.02 472.18 762.97 472.96 757.92 474.34 754.81 475.34 748.42 476.91 746.84 484.01 748.87 486.85 747.95 493.31 748.81 497.65 744.73 504.18 739.47 507.29 738.97 512.43 736.95 515.17 738.1 515.77 742.32 519.1 742.82 522 741.22 524.95 737.9 529.26 737.86 532.98 739.4 537.07 742.92 537.46 744.5 540.56 747.46 543.56 745.97 545.26 744.13 549.87 741.04 551.99 740.93 554.96 743.94 556.23 742.75 558.62 745.81 Z"/>
</g>
</svg>